<svg xmlns="http://www.w3.org/2000/svg" viewBox="0 0 512 512">
  <defs>
    <linearGradient id="potA" x1="0" y1="0" x2="0" y2="1">
      <stop offset="0" stop-color="#f2be76"/>
      <stop offset="1" stop-color="#b57834"/>
    </linearGradient>
    <linearGradient id="glueA" x1="0" y1="0" x2="0" y2="1">
      <stop offset="0" stop-color="#ffe27b"/>
      <stop offset="1" stop-color="#e0b73f"/>
    </linearGradient>
  </defs>

  <ellipse cx="250" cy="430" rx="150" ry="22" fill="#000" opacity=".14"/>

  <rect x="158" y="132" width="184" height="236" rx="38" fill="url(#potA)" stroke="#7f5224" stroke-width="10"/>
  <rect x="148" y="112" width="204" height="38" rx="16" fill="#a46d31" stroke="#6b431d" stroke-width="8"/>

  <path d="M180 136 C210 178, 290 178, 320 136 L320 168 C290 206, 210 206, 180 168 Z" fill="url(#glueA)"/>
  <ellipse cx="250" cy="138" rx="70" ry="24" fill="url(#glueA)" stroke="#b68e2b" stroke-width="6"/>
  <ellipse cx="226" cy="130" rx="22" ry="9" fill="#fff3b8" opacity=".55"/>

  <path d="M220 162 C228 184, 204 198, 212 220" stroke="#e7bf4f" stroke-width="12" fill="none" stroke-linecap="round"/>
  <path d="M282 162 C290 182, 268 194, 276 214" stroke="#e7bf4f" stroke-width="10" fill="none" stroke-linecap="round"/>

  <g fill="#f0cc65">
    <circle cx="214" cy="304" r="16"/>
    <circle cx="250" cy="322" r="18"/>
    <circle cx="286" cy="302" r="14"/>
  </g>
</svg>
